<svg height="512pt" viewBox="0 0 512 512" width="512pt" xmlns="http://www.w3.org/2000/svg" xmlns:xlink="http://www.w3.org/1999/xlink"><linearGradient id="a" gradientUnits="userSpaceOnUse" x1="74.9807" x2="437.0193" y1="74.9807" y2="437.0193"><stop offset="0" stop-color="#54a0c8"/><stop offset="1" stop-color="#275d86"/></linearGradient><linearGradient id="b"><stop offset="0" stop-color="#fff7d3"/><stop offset="1" stop-color="#ffeea6"/></linearGradient><linearGradient id="c" gradientUnits="userSpaceOnUse" x1="96.5874" x2="162.7563" xlink:href="#b" y1="341.4185" y2="407.5874"/><linearGradient id="d"><stop offset="0" stop-color="#ffeea6"/><stop offset="1" stop-color="#ffcd00"/></linearGradient><linearGradient id="e" gradientUnits="userSpaceOnUse" x1="88.3429" x2="171.0008" xlink:href="#d" y1="219.6766" y2="302.3345"/><linearGradient id="f"><stop offset="0" stop-color="#ffdf5e"/><stop offset="1" stop-color="#ffcd00"/></linearGradient><linearGradient id="g" gradientUnits="userSpaceOnUse" x1="95.1755" x2="164.1683" xlink:href="#f" y1="212.844" y2="281.8368"/><linearGradient id="h" gradientUnits="userSpaceOnUse" x1="98.251" x2="161.0928" xlink:href="#b" y1="161.4287" y2="224.2705"/><linearGradient id="i" gradientUnits="userSpaceOnUse" x1="349.2437" x2="415.4126" xlink:href="#b" y1="341.4185" y2="407.5874"/><linearGradient id="j" gradientUnits="userSpaceOnUse" x1="340.9992" x2="423.6571" xlink:href="#d" y1="219.6766" y2="302.3345"/><linearGradient id="k" gradientUnits="userSpaceOnUse" x1="347.8317" x2="416.8245" xlink:href="#f" y1="212.844" y2="281.8368"/><linearGradient id="l" gradientUnits="userSpaceOnUse" x1="350.9072" x2="413.749" xlink:href="#b" y1="161.4287" y2="224.2705"/><linearGradient id="m" gradientUnits="userSpaceOnUse" x1="187.6797" x2="324.3203" y1="300.5347" y2="300.5347"><stop offset="0" stop-color="#b0ffc7"/><stop offset="1" stop-color="#6dd48b"/></linearGradient><linearGradient id="n" gradientUnits="userSpaceOnUse" x1="219.1638" x2="292.8362" xlink:href="#f" y1="87.1751" y2="160.8474"/><linearGradient id="o" gradientUnits="userSpaceOnUse" x1="225.0625" x2="286.9375" xlink:href="#b" y1="151.2773" y2="213.1523"/><linearGradient id="p" gradientUnits="userSpaceOnUse" x1="204.1152" x2="307.8848" xlink:href="#b" y1="266.3262" y2="370.0957"/><path d="m512 256c0 141.386719-114.613281 256-256 256s-256-114.613281-256-256 114.613281-256 256-256 256 114.613281 256 256zm0 0" fill="url(#a)"/><path d="m139.339844 382.664062v-64.660156h-19.335938v64.660156h-29.003906v19.335938h77.34375v-19.335938zm0 0" fill="url(#c)"/><path d="m168.34375 217.019531v71.980469c0 21.320312-17.351562 38.671875-38.671875 38.671875s-38.671875-17.351563-38.671875-38.671875v-71.980469l38.671875-19.335937zm0 0" fill="url(#e)"/><path d="m129.671875 308.335938c-10.660156 0-19.335937-8.671876-19.335937-19.335938v-91.316406h38.671874v91.316406c0 10.664062-8.671874 19.335938-19.335937 19.335938zm0 0" fill="url(#g)"/><path d="m91 168.679688h77.34375v48.339843h-77.34375zm0 0" fill="url(#h)"/><path d="m391.996094 382.664062v-64.660156h-19.335938v64.660156h-29.003906v19.335938h77.34375v-19.335938zm0 0" fill="url(#i)"/><path d="m421 217.019531v71.980469c0 21.320312-17.351562 38.671875-38.671875 38.671875s-38.671875-17.351563-38.671875-38.671875v-71.980469l38.671875-19.335937zm0 0" fill="url(#j)"/><path d="m382.328125 308.335938c-10.664063 0-19.335937-8.671876-19.335937-19.335938v-91.316406h38.671874v91.316406c0 10.664062-8.675781 19.335938-19.335937 19.335938zm0 0" fill="url(#k)"/><path d="m343.65625 168.679688h77.34375v48.339843h-77.34375zm0 0" fill="url(#l)"/><path d="m324.320312 282.761719c0-32.21875-8-49.371094-15.734374-65.960938-2.691407-5.773437-5.328126-11.433593-7.566407-17.730469h-90.039062c-2.238281 6.296876-4.878907 11.957032-7.574219 17.730469-7.726562 16.589844-15.726562 33.742188-15.726562 65.960938l34.160156 35.449219-34.160156 35.449218v48.339844h136.640624v-48.339844l-34.160156-35.449218zm0 0" fill="url(#m)"/><path d="m294.671875 101.003906c0-15.992187-13.011719-29.003906-29.003906-29.003906h-19.335938c-15.992187 0-29.003906 13.011719-29.003906 29.003906v58.007813l20.945313 10.472656-1.609376 8.863281 11.601563-3.867187 7.734375 3.867187v-6.445312l38.671875-12.890625zm0 0" fill="url(#n)"/><path d="m294.671875 159.011719h-77.34375c0 17.421875-2.628906 29.625-6.347656 40.058593l45.019531 45.019532 45.019531-45.019532c-3.71875-10.4375-6.347656-22.636718-6.347656-40.058593zm0 0" fill="url(#o)"/><path d="m256 282.761719h-68.320312v70.898437h136.640624v-70.898437zm0 0" fill="url(#p)"/><path d="m256 302.097656h-48.984375v32.226563h97.96875v-32.226563zm0 0" fill="#fff"/></svg>